<?xml version="1.0" encoding="utf-8"?>
<!-- Generator: Adobe Illustrator 18.0.0, SVG Export Plug-In . SVG Version: 6.00 Build 0)  -->
<!DOCTYPE svg PUBLIC "-//W3C//DTD SVG 1.1//EN" "http://www.w3.org/Graphics/SVG/1.1/DTD/svg11.dtd" [
	<!ENTITY ns_extend "http://ns.adobe.com/Extensibility/1.0/">
	<!ENTITY ns_ai "http://ns.adobe.com/AdobeIllustrator/10.0/">
	<!ENTITY ns_graphs "http://ns.adobe.com/Graphs/1.0/">
	<!ENTITY ns_vars "http://ns.adobe.com/Variables/1.0/">
	<!ENTITY ns_imrep "http://ns.adobe.com/ImageReplacement/1.0/">
	<!ENTITY ns_sfw "http://ns.adobe.com/SaveForWeb/1.0/">
	<!ENTITY ns_custom "http://ns.adobe.com/GenericCustomNamespace/1.0/">
	<!ENTITY ns_adobe_xpath "http://ns.adobe.com/XPath/1.0/">
]>
<svg version="1.1"
	 id="Layer_1" xmlns:x="&ns_extend;" xmlns:i="&ns_ai;" xmlns:graph="&ns_graphs;" xmlns:sketch="http://www.bohemiancoding.com/sketch/ns"
	 xmlns="http://www.w3.org/2000/svg" xmlns:xlink="http://www.w3.org/1999/xlink" x="0px" y="0px" viewBox="0 0 301 49"
	 enable-background="new 0 0 301 49" xml:space="preserve">
<metadata>
	<sfw  xmlns="&ns_sfw;">
		<slices></slices>
		<sliceSourceBounds  x="141" height="43" y="371" width="293.3" bottomLeftOrigin="true"></sliceSourceBounds>
	</sfw>
</metadata>
<path fill="#FFFFFF" d="M190,8V3h-22v5c-2,0-4,0-6,0v30h6V21h17v-5h-17V8H190z"/>
<path id="Shape_24_" sketch:type="MSShapeGroup" fill="#FFFFFF" d="M38,3v29h-6v6h-6v-6H15v6H9v-6H3V3h6v29h6v-6h11v6h6V3H38L38,3z"
	/>
<path id="Shape_23_" sketch:type="MSShapeGroup" fill="#FFFFFF" d="M74,16v16h-5v6H52v-6h-5V16h5v-5h17v5H74L74,16z M68,16H53v16h15
	V16L68,16z"/>
<path id="Shape_22_" sketch:type="MSShapeGroup" fill="#FFFFFF" d="M111,16v22h-6V16h-5v22h-5V16h-5v22h-6V11h11v5h5v-5h6v5H111
	L111,16z"/>
<path id="Shape_21_" sketch:type="MSShapeGroup" fill="#FFFFFF" d="M151,16v12h-6v6h-18v12h-6V10h24v6H151L151,16z M145,16h-18v12
	h18V16L145,16z"/>
<path id="Shape_19_" sketch:type="MSShapeGroup" fill="#FFFFFF" d="M200.7,26.9V32h21v6h-22v-6h-5V16h5v-6h17v6h5v5h-5v6h-16.4
	L200.7,26.9z M200.7,16v5h16v-5H200.7L200.7,16z"/>
<path id="Shape_18_" sketch:type="MSShapeGroup" fill="#FFFFFF" d="M237,26.9V32h22v6h-22v-6h-5V16h5v-6h16v6h6v5h-6v6h-15.9
	L237,26.9z M237,16v5h16v-5H237L237,16z"/>
<path id="Shape_17_" sketch:type="MSShapeGroup" fill="#FFFFFF" d="M296.3,3v35h-23v-6h-6V20h6v-6h17V3H296.3L296.3,3z M290.3,20
	h-17v12h17V20L290.3,20z"/>
</svg>
