<?xml version="1.0" encoding="utf-8"?>
<!-- Generator: Adobe Illustrator 18.0.0, SVG Export Plug-In . SVG Version: 6.00 Build 0)  -->
<!DOCTYPE svg PUBLIC "-//W3C//DTD SVG 1.1//EN" "http://www.w3.org/Graphics/SVG/1.1/DTD/svg11.dtd">
<svg version="1.1" id="Layer_1" xmlns="http://www.w3.org/2000/svg" xmlns:xlink="http://www.w3.org/1999/xlink" x="0px" y="0px"
	 viewBox="0 0 21 21.1" enable-background="new 0 0 21 21.1" xml:space="preserve">
<g>
	<polygon fill-rule="evenodd" clip-rule="evenodd" fill="#FF7150" points="10.5,5.3 9.2,5.3 9.2,10.5 9.2,11.8 10.5,11.8 14.4,11.8 
		14.4,10.5 10.5,10.5 	"/>
	<path fill="#FF7150" d="M14.4,12.3H9.2c-0.3,0-0.5-0.2-0.5-0.5V5.2c0-0.3,0.2-0.5,0.5-0.5h1.3C10.8,4.8,11,5,11,5.2V10h3.4
		c0.3,0,0.5,0.2,0.5,0.5v1.3C14.9,12.1,14.7,12.3,14.4,12.3z"/>
</g>
<g>
	<path fill-rule="evenodd" clip-rule="evenodd" fill="#FF7150" d="M10.5,0C4.7,0,0,4.7,0,10.5S4.7,21,10.5,21
		C16.3,21,21,16.3,21,10.5S16.3,0,10.5,0z M10.5,18.4c-4.3,0-7.9-3.5-7.9-7.9s3.5-7.9,7.9-7.9c4.3,0,7.9,3.5,7.9,7.9
		S14.8,18.4,10.5,18.4z"/>
</g>
</svg>
