<?xml version="1.0" encoding="utf-8"?>
<!-- Generator: Adobe Illustrator 18.0.0, SVG Export Plug-In . SVG Version: 6.00 Build 0)  -->
<!DOCTYPE svg PUBLIC "-//W3C//DTD SVG 1.1//EN" "http://www.w3.org/Graphics/SVG/1.1/DTD/svg11.dtd">
<svg version="1.1" id="Layer_1" xmlns="http://www.w3.org/2000/svg" xmlns:xlink="http://www.w3.org/1999/xlink" x="0px" y="0px"
	 viewBox="0 0 24.7 20.6" enable-background="new 0 0 24.7 20.6" xml:space="preserve">
<path fill="#FF7150" d="M23.8,8.2L22,1.7c-0.1-0.2-0.1-0.3-0.2-0.4C21.6,1,21.4,1,21.1,1c-0.2,0-0.5,0.1-0.7,0.2l-6,3
	c-0.1,0.1-0.2,0.2-0.3,0.3c0,0.1,0,0.3,0,0.4L15,6.2c0.1,0.3,0.5,0.4,0.7,0.2l2.4-1.1L13.6,14L9.3,6.5C9.1,6.2,9,6,8.7,5.9
	C8.3,5.8,7.9,6,7.8,6.3l-3.5,6.3c0,0,0,0.1,0,0.1L1,18.6c-0.1,0.1-0.1,0.3,0,0.4c0,0.1,0.1,0.3,0.3,0.3L2.5,20
	c0.3,0.1,0.6,0,0.7-0.2l0.1-0.2l3.2-5.8c0,0,0,0,0,0l0.1-0.2l1.8-3.4l4.4,7.8c0.1,0.3,0.4,0.4,0.7,0.4c0.3,0,0.6-0.2,0.7-0.4
	l6.3-11.7l0.6,2.5c0.1,0.3,0.4,0.5,0.7,0.4l1.4-0.4c0.1,0,0.3-0.1,0.3-0.3C23.8,8.5,23.8,8.3,23.8,8.2z"/>
<line fill="none" x1="20.7" y1="6.3" x2="18.2" y2="5.3"/>
</svg>
