<?xml version="1.0" encoding="utf-8"?>
<!-- Generator: Adobe Illustrator 18.0.0, SVG Export Plug-In . SVG Version: 6.00 Build 0)  -->
<!DOCTYPE svg PUBLIC "-//W3C//DTD SVG 1.1//EN" "http://www.w3.org/Graphics/SVG/1.1/DTD/svg11.dtd">
<svg version="1.1" id="Layer_1" xmlns="http://www.w3.org/2000/svg" xmlns:xlink="http://www.w3.org/1999/xlink" x="0px" y="0px"
	 viewBox="0 0 21 21.1" enable-background="new 0 0 21 21.1" xml:space="preserve">
<rect x="-377.2" y="90.5" fill-rule="evenodd" clip-rule="evenodd" fill="none" width="144.2" height="13.8"/>
<text transform="matrix(1 0 0 1 -377.2286 103.4813)" fill="#FF7150" font-family="'Akkurat-Bold'" font-size="18">Most Shared</text>
<g>
	<path fill="#FF7150" d="M-210.6,103.7c-0.1,0.1-0.2,0.1-0.3,0c-1-1.1-7.2-7-7.2-7l-2.7-2.7c-2.4-2.4-2.4-6.5,0.3-8.6
		c2.2-1.7,5.1-1.5,7.2,0.5l2.5,2.4c0.1,0.1,0.2,0.1,0.3,0l2.5-2.5c2.1-2.1,5.1-2.2,7.2-0.5c2.6,2.1,2.6,6.2,0.3,8.6l-2.7,2.7
		L-210.6,103.7z"/>
</g>
<g>
	<g>
		<path fill="#FF7150" d="M-656.8,103.1c-8.6,0-15.8-9.4-15.8-10.2c0-0.8,7.2-10.2,15.8-10.2c7.8,0,14.5,8,15.7,9.9l0,0l0,0
			c0.1,0.2,0.2,0.3,0.2,0.4l-0.4,0.6c0,0-0.1,0.1-0.1,0.1C-647.8,101.4-653.3,103.1-656.8,103.1z"/>
	</g>
</g>
<g>
	<g>
		<path fill-rule="evenodd" clip-rule="evenodd" fill="#FFFFFF" d="M-656.8,86.2c-3.6,0-6.5,2.9-6.5,6.5c0,3.6,2.9,6.5,6.5,6.5
			c3.6,0,6.5-2.9,6.5-6.5C-650.3,89.1-653.2,86.2-656.8,86.2z"/>
	</g>
</g>
<g>
	<path fill-rule="evenodd" clip-rule="evenodd" fill="#FF7150" d="M-656.8,95.6c-1.7,0-3.1-1.4-3.1-3.1c0-1.7,1.4-3.1,3.1-3.1
		c1.7,0,3.1,1.4,3.1,3.1C-653.8,94.2-655.1,95.6-656.8,95.6z"/>
</g>
<rect x="-626.7" y="86.2" fill-rule="evenodd" clip-rule="evenodd" fill="none" width="118.2" height="36.6"/>
<text transform="matrix(1 0 0 1 -626.7286 99.2441)" fill="#FF7150" font-family="'Akkurat-Bold'" font-size="18">Most Viewed</text>
<line fill="none" stroke="#FF7150" stroke-width="3" stroke-miterlimit="10" x1="-672.6" y1="113" x2="-520.5" y2="113"/>
<path fill="#FF7150" d="M-382.9,91.9l-1.7-6.8c0-0.1-0.1-0.3-0.1-0.4c-0.1-0.2-0.4-0.4-0.7-0.4c-0.2,0-0.4,0.1-0.6,0.2l-6.1,3.3
	c-0.1,0.1-0.2,0.2-0.3,0.3c0,0.1,0,0.3,0,0.4l0.7,1.3c0.1,0.3,0.5,0.4,0.7,0.2l2.6-1.4l-4.7,9l-4.3-7.5c-0.3-0.3-0.3-0.5-0.6-0.6
	c-0.4-0.1-0.8,0.1-0.9,0.4l-3.5,6.3c0,0,0,0.1,0,0.1l-3.3,5.9c-0.1,0.1-0.1,0.3,0,0.4c0,0.1,0.1,0.3,0.3,0.3l1.3,0.7
	c0.3,0.1,0.6,0,0.7-0.2l0.1-0.2l3.2-5.8c0,0,0,0,0,0l0.1-0.2l1.8-3.4l4.4,7.8c0.1,0.3,0.4,0.4,0.7,0.4c0.3,0,0.6-0.2,0.7-0.4
	l6.3-11.7l0.6,2.5c0.1,0.3,0.4,0.5,0.7,0.4l1.4-0.4c0.1,0,0.3-0.1,0.3-0.3C-382.9,92.2-382.9,92-382.9,91.9z"/>
<g>
	<path fill="#FF7150" d="M-131.1,20.6c-0.4,0.4-0.7,0.1-0.8,0c-1.2-1.2-7.3-7.3-7.3-7.3l-2.7-2.7c-2.3-2.3-2-6,0.4-8.1
		c2.2-1.9,5.3-1.8,7.5,0.3l2.5,2.5c0.1,0.1,0.2,0.1,0.2,0l2.5-2.5c2.2-2.2,5.3-2.2,7.5-0.3c2.4,2.2,2.5,5.8,0.2,8.1l-2.9,2.9
		L-131.1,20.6z"/>
</g>
<path fill="#FF7150" d="M-73.6,8l-1.9-7.1c-0.1-0.2-0.1-0.4-0.2-0.5c-0.2-0.3-0.4-0.3-0.7-0.3c-0.2,0-0.5,0.1-0.7,0.2l-6.5,3.2
	C-83.9,3.6-84,3.7-84,3.9c0,0.2,0,0.3,0,0.5l0.8,1.4c0.2,0.3,0.5,0.4,0.8,0.2l2.7-1.2l-5,9.6l-4.7-8.2c-0.3-0.4-0.3-0.6-0.7-0.7
	c-0.4-0.1-0.8,0.1-1,0.4l-3.8,6.9c0,0,0,0.1,0,0.1l-3.6,6.5c-0.1,0.1-0.1,0.3-0.1,0.5c0,0.2,0.1,0.3,0.3,0.4l1.4,0.8
	c0.3,0.2,0.7,0.1,0.8-0.2l0.1-0.2l3.5-6.3c0,0,0,0,0,0l0.1-0.2l2-3.7l4.8,8.5c0.2,0.3,0.5,0.5,0.8,0.5c0.3,0,0.6-0.2,0.8-0.5l7-12.8
	l0.7,2.7c0.1,0.3,0.4,0.5,0.7,0.4l1.6-0.4c0.2,0,0.3-0.1,0.4-0.3C-73.6,8.3-73.6,8.1-73.6,8z"/>
<line fill="none" x1="-77" y1="5.9" x2="-79.7" y2="4.8"/>
<g>
	<g>
		<path fill="#FF7150" d="M-33.7,20.8c-8.6,0-15.8-9.4-15.8-10.2c0-0.8,7.2-10.2,15.8-10.2c7.8,0,14.5,8,15.7,9.9l0,0l0,0
			c0.1,0.2,0.2,0.3,0.2,0.4l-0.4,0.6c0,0-0.1,0.1-0.1,0.1C-24.8,19.1-30.3,20.8-33.7,20.8z"/>
	</g>
</g>
<g>
	<g>
		<path fill-rule="evenodd" clip-rule="evenodd" fill="#FFFFFF" d="M-33.8,3.9c-3.6,0-6.5,2.9-6.5,6.5c0,3.6,2.9,6.5,6.5,6.5
			c3.6,0,6.5-2.9,6.5-6.5C-27.3,6.8-30.2,3.9-33.8,3.9z"/>
	</g>
</g>
<g>
	<path fill-rule="evenodd" clip-rule="evenodd" fill="#FF7150" d="M-33.8,13.2c-1.7,0-3.1-1.4-3.1-3.1c0-1.7,1.4-3.1,3.1-3.1
		c1.7,0,3.1,1.4,3.1,3.1C-30.8,11.9-32.1,13.2-33.8,13.2z"/>
</g>
<g>
	<polygon fill-rule="evenodd" clip-rule="evenodd" fill="#FF7150" points="10.5,5.3 9.2,5.3 9.2,10.5 9.2,11.8 10.5,11.8 14.4,11.8 
		14.4,10.5 10.5,10.5 	"/>
	<path fill="#FF7150" d="M14.4,12.3H9.2c-0.3,0-0.5-0.2-0.5-0.5V5.2c0-0.3,0.2-0.5,0.5-0.5h1.3C10.8,4.8,11,5,11,5.2V10h3.4
		c0.3,0,0.5,0.2,0.5,0.5v1.3C14.9,12.1,14.7,12.3,14.4,12.3z"/>
</g>
<g>
	<path fill-rule="evenodd" clip-rule="evenodd" fill="#FF7150" d="M10.5,0C4.7,0,0,4.7,0,10.5S4.7,21,10.5,21
		C16.3,21,21,16.3,21,10.5S16.3,0,10.5,0z M10.5,18.4c-4.3,0-7.9-3.5-7.9-7.9s3.5-7.9,7.9-7.9c4.3,0,7.9,3.5,7.9,7.9
		S14.8,18.4,10.5,18.4z"/>
</g>
</svg>
