<?xml version="1.0" encoding="utf-8"?>
<!-- Generator: Adobe Illustrator 18.0.0, SVG Export Plug-In . SVG Version: 6.00 Build 0)  -->
<!DOCTYPE svg PUBLIC "-//W3C//DTD SVG 1.1//EN" "http://www.w3.org/Graphics/SVG/1.1/DTD/svg11.dtd">
<svg version="1.1" id="Layer_1" xmlns="http://www.w3.org/2000/svg" xmlns:xlink="http://www.w3.org/1999/xlink" x="0px" y="0px"
	 viewBox="0 0 458 712" enable-background="new 0 0 458 712" xml:space="preserve">
<path fill="#4798ED" d="M155.9,104.6c0.7,5.8,14,4.2,17.6,2.5c3.6-1.7,15.9-10.1,17.6-9.2c1.7,0.8,20.4-6.7,22.9-5.6
	c2.5,1.1,13.1-0.6,15.1-3.9c2-3.3,8.4-2,12.9-1.4c4.5,0.6,16.5-3.1,19.8-9.8c3.4-6.7-5.9-8.9-10.9-5.6c-5,3.4-14.5,7.5-16.5,6.1
	c-2-1.4-6.2-6.1-12.3-2c-6.2,4.2-8.1,5.6-8.9,3.9c-0.8-1.7,3.9-6.4,9.8-7.3c5.9-0.8,0.8-10.3,3.1-12c2.2-1.7,5.3-6.7,8.9-9.2
	c3.6-2.5-1.7-5.9-5.9-3.6c-4.2,2.2-11.5,5.3-12.6,10.3c-1.1,5-0.9,3.6-2.5,2.7c-1.5-0.9-4.7-1.1-5.4,0.9c-0.7,2-0.8,3,1,4.8
	c1.8,1.9-1,3.9-3.2,3.2c-2.2-0.7-2.5-0.7-2.1-3.3c0.4-2.6,2.3-3.4-0.6-5.5c-2.9-2.1-9.8-3.7-9.3-6c0.4-2.3,3-1.3,4.3-3.8
	c1.3-2.5-4-4-9.9-2.4c-5.9,1.5-7.3,7.9-4.7,9.5c2.5,1.5,11.6,9.7,5.7,16.3c-5.1,5.6-22.9-4.2-26.2-7.6c-2.4-2.5-6.3-10-11-9.7
	c-4.7,0.3-5.9,4.6-4.9,7.8c1,3.2,4.2,7.6,9.1,9.7c5,2.1,16.5,6.7,20.7,7.7c4.2,1,11.9,2.7,11.1,5.4c-0.8,2.6-7.8,3.4-11.2,2.3
	c-3.4-1.1-5.6,1.1-6.3,2.9c-0.7,1.8,1.2,4.5,0.2,4.8c-2.3,0.7-2.6-1.5-4.3-2C163.9,94.7,154.9,95.8,155.9,104.6"/>
<path fill="#F4592F" d="M154.6,258.5c-4.7-1.5-6.3-9.8-4.7-23.2c1.6-13.4,5.1-30.9,10.3-49.3c5.2-18.4,20-67.3,25.9-79.9
	c5.9-12.7,15.2-23.8,26.9-17.1c11.8,6.7,21.6,24.2,35.7,53.4c14.1,29.2,19.1,53.8,21.6,66.8c2.5,13,3.4,21.7,1.5,24.5
	c-1.9,2.8-1.6,2.8-11.5,3.4c-9.8,0.6-46.2,5.7-59.5,8.9C185,249.7,160.2,260.2,154.6,258.5 M188.5,129.1c-5.4,11.7-8.7,19.2-8.9,21
	c-0.1,1.8,1.3,2,3.9-0.1c2.6-2.1,6-2.8,7.9-3.5c1.9-0.7,20.8-10.8,23.7-19.6c2.9-8.8-0.3-13-3-16.6c-2.7-3.6-6.4-7.2-9.3-5
	C199.8,107.4,191.7,122.1,188.5,129.1 M230.8,139.7c-2.2-3.4-4.6-8.2-7.6-6.7c-3,1.5-4.1,3.6-7.3,10.6c-3.2,7-5,12.8-14.4,16.3
	c-9.3,3.5-14.3,3.2-20.1,6.8c-5.8,3.6-10.4,8.2-14.6,23.6c-4.2,15.4-6.1,20.1-4.9,24c1.1,3.8,3,3.8,9.7,2.1
	c6.8-1.8,18.2-5.1,23.7-8.1c5.5-3,18.1-12.7,28.2-28.7c10.2-16,11.8-17.3,12.3-22C236.5,152.9,234.3,145,230.8,139.7 M156.1,237.3
	c-0.3,5,1.2,12.5,9.4,11.3c8.2-1.2,29.9-8.9,38.5-14.8c8.6-5.9,25.9-23.1,31.4-29.5c5.5-6.5,16.5-16.1,12.2-27.9
	c-4.3-11.8-5.9-10.4-9.9,0.1c-4,10.5-15.4,25.7-31.8,36.8c-16.4,11.1-31.9,13-38,13.2C161.9,226.6,156.7,227.7,156.1,237.3
	 M242.5,213.3c-4.8,5.1-12,10.2-13.3,13.1c-1.2,2.9,1.1,2.8,3.4,2.6c2.3-0.2,17.1,0.6,19.8-1c2.7-1.6,5.7-1,6.3-8.8
	c0.5-7.7,1.1-14.4-2.7-16.6C252.3,200.4,248.8,206.5,242.5,213.3"/>
<path fill="#1A1A1A" d="M270.4,246.2c1.2-2.6,0.7-3.5,0.7-4.8c0-0.4,4.3-2.1,5.7,3.5c1.4,5.6-1.4,6.9-3.7,7.5
	c-4.2,1.1-9.7,2.1-10.8-0.2c-0.5-1,0.7-1.9,3.7-2.9C267.6,248.7,269.2,248.7,270.4,246.2"/>
<path fill="#1A1A1A" d="M237.6,243.7c2.2,0.2,4.2,1.5,5.6,2.6c1.5,1.1,2.6,2.4,4.5,0.7c1.9-1.6,1-4.7-0.9-6.1
	c-1.9-1.4-3.5-2.3-3.4-2.9c0.1-0.5,2.8-0.4,3.1-0.7c0.3-0.3,19.9-1.9,21.6-1.2c1.8,0.7,3.6,2.8,0.7,3.6c-2.7,0.7-0.4,8-5.2,7.6
	c-3.1-0.2-2.8-5.4-6.7-5.1c-4,0.3-4.5,1.9-5.4,3.4c-0.8,1.5-1.2,2.9-0.9,5.5c0.4,2.6-0.4,3.7-2.4,3.9c-2,0.2-4.6-4.5-4.8-6.2
	c-0.2-1.8-3.7-4-4.3-3.3c-0.6,0.7-2.1,1.7-2.9,0.3C235.4,244.6,236.8,243.6,237.6,243.7"/>
<path fill="#1A1A1A" d="M215.6,247c1.5-0.4,2.2,1.7,3.1,2.7c1.4,1.5,1.8,2.1,5.3,1.5c3.4-0.6,4.5-3.7,5.6-5.2
	c1.1-1.5,3.2-0.4,3.2,1.1c-0.1,1.5,0.1,3.8,1.5,4.6c1.4,0.8,0.4,2.5,0,3.3c-0.4,0.8-2.3,0.8-1.6-0.7c0.7-1.5-0.2-3-1.9-4.2
	c-1.7-1.2-3.1,0.6-4,1.8c-0.9,1.2-2.9,1.8-4.8,2.3c-1.9,0.4-3-1.9-5.9-3.2C213.3,249.6,214.1,247.5,215.6,247"/>
<path fill="#1A1A1A" d="M214.4,252.4c1.8,1.8,3.4,2.3,2.6,3.9c-0.9,1.5-2.3,1.4-3.8,0.1c-1.5-1.3-3.2-0.8-4.9-0.6
	c-1.7,0.2-4,4.5-4.4,5.5c-0.4,1-2.2,0.9-3.4-1c-0.3-0.4-1.2-1.4,1.5-1.3c2.6,0.1,2.6-2.8,2.7-4.7c0.2-1.9,0-0.9,2.2-3
	C209,249.1,212.6,250.6,214.4,252.4"/>
<path fill="#1A1A1A" d="M173,264.8c0.5-1,1.8-0.4,2.9,0.1c3.2,1.2,3.7-2.4,3.9-5.4c0.2-2.9-1.4-3.7-2.6-4.8c-1.2-1-2.9-0.6-3.2-1.1
	c-0.4-0.5,0.8-1.8,0.8-1.8s35.3-10.1,36.4-9.1c1.1,1,0.3,1.8-1.4,2.5c-1.7,0.7-0.9,1.8-1.5,2.6c-0.7,0.8-3.8,1.1-5.2,2.2
	c-1.4,1.1-2.7,4.4-3.1,3.2c-0.6-1.6-4.6-5.5-5.6-4.6c-1,0.8,0.3,3.9,1,5.1c0.7,1.2,1,4.6-0.8,9.4c-1.8,4.8-3.3,5.6-4.8,6.3
	c-1.5,0.7-2.1,0.4-2.8-1.3c-0.7-1.7-2.2-0.8-3.5-1c-1.3-0.1-0.7-6.2-0.2-8.7c0.5-2.5,3.4-4.1,2.3-2.2c-1.1,1.9-1.1,8.1,1.1,9.8
	c2.2,1.8,6.2-2,6.8-3.4c0.6-1.4-2.3-3.6-3.1-4.1c-0.8-0.5-1-3.1,1.1-4.3c2-1.2,1.9-2.4,1.8-3.6c-0.1-1.2-1.8-0.4-2.6-0.1
	c-0.7,0.3-1.3,2.5-1.2,1.4c0.1-1.1-0.2-1.5-5.1,1.6c-4.9,3.1-3.9,11.1-4.1,12.9c-0.2,1.8-3.2,3.6-3.8,4.5c-0.6,1-1.8,0.8-1.5-0.3
	c0.3-1.1-0.1-2.8-0.5-3.6C174,266.4,172.5,265.8,173,264.8"/>
<path fill="#1A1A1A" d="M172.8,273.7c0.7-2.8,2.1,1.1,2.6,1.3c1.8,0.7,5.1-1.4,5.8-3.7c0.7-2.3,1.5-0.7,1.5,0.2s-2.3,8.1-6.6,8.2
	C171.9,280,172,276.5,172.8,273.7"/>
<path fill="#FFFFFF" d="M432.9,292.3c-3.3-1.5-0.7-4.1,1.9-3.9c2.6,0.2,6.2-0.5,2.9-2.5c-3.3-2-4,0.4-4-2c0-2.4,7.3-7,7-9.9
	c-0.2-2.9-4-6.4-4.8-3.7c-0.9,2.6-4,7.3-4.8,7.7c-0.9,0.4-4.7,1.3-0.9-2.9c3.7-4.2,3.4-11.3,4.1-13.5c0.7-2.2-2.7-1.5-3.8,0.5
	c-1.1,2-4.2-5.5-5.2-6.6c-1-1.1-4.1-0.9-3,4.2c1.1,5.1,3.7,0.7,4.4,5.9c0.7,5.3-4.6,9.9-4,9.2c0.7-0.7-4.6-13.2-6.2-14.1
	c-1.5-0.9-6.2-1.3-5.3,2.2c0.9,3.5,4.6,9.9,6.6,11.2c2,1.3,2,8.6-1.3,5.7c-3.3-2.9-9.7,1.1-10.8,6.8c-1.1,5.7-4.2,15.8-13.9,21.6
	c-9.7,5.7-23.8,25.9-26.4,26.8c-2.6,0.9,2.4-13.6,4.8-25.7c2.4-12.1,2-23.3,0.4-35.8c-1.5-12.5,3.5-14.1-1.5-17.2
	c-5.1-3.1-23.1-2.6-24.1,0c-1,2.6-1,11.2-0.1,27.3c0.9,16.1-3.5,41.8-9.2,59.4c-5.7,17.6-20.2,47.3-25.9,55.4
	c-5.7,8.1-18.4,23.1-25.3,20.7c-14.1-5.1-17.2-11.7-19.4-19.6c-2-7.2-4.6-18,0-15.6c4.6,2.4,17.8,0.2,23.5-13.6
	c5.7-13.9-9.5-21.3-5.1-20.7c4.4,0.7,6.8-2,19.1-18.7c12.3-16.7,11.9-28.4,12.8-36.1c0.9-7.7-4.2-10.3-7.5-8.6
	c-3.3,1.8-7.3,3.3-14.7,0.7c-7.5-2.6-13.9-33.4-12.5-35.6c1.3-2.2,0.9-10.6-3.3-12.1c-4.2-1.5-3.1-3.1-7.3-4
	c-4.2-0.9-16.1,0.9-16.7,0.9c-0.7,0-12.1,0.7-12.1,0.7l-1.9,0.3c0.5,0,0.7,0.1,0.6,0.3c-0.8,1.8,3.8,3.2,4.5,4.4
	c0.7,1.2,1.2,3.6-2.5,1c-3.6-2.5-10.4-0.2-13.1,0.2c-2.7,0.4-4,4.4-5.6,5c-0.8,0.3-2.7-0.2-3.4-2.4c-0.7-2.2-3.8-1.4-4.6-1.8
	c-0.8-0.3,0-2,2.1-2.9c0,0,2.6-0.6,6.1-1.3l-15.4,2.5c0,0-21.1,5.3-21.8,5.3c-0.7,0-11.7,4.2-14.3,4.6c-2.5,0.4-3.3,0.6-5.9,1.8
	c1.2-0.2,1.9-0.2,1.8,0c-0.4,0.7-0.7,2.6-0.1,3.5c0.5,0.9,2.2-1.2,2.9-1.3c0.7-0.1,0.3,2.3,1.5,1.5c1.2-0.8,3.2-1.7,4.4-0.6
	c1.2,1.1-0.8,3.6-1.8,4.1c-0.9,0.5-2.6-0.4-4,0.4c-1.4,0.9-1.9,3.7-1.8,5.4c0.1,1.8-2.7,4.8-4.7,3.3c-2-1.5,0.4-10.5-1.3-11.7
	c-1.8-1.2-2.1,1.4-4.1,2.6c-2,1.2-1.9,4.6-1.4,5.9c0.5,1.2,2.7,1.8,3.2,4.5c0.5,2.7-1.2,7.9-3.2,8.5c-2,0.6-0.9,3.3-2.2,2.2
	c-1.2-1.1,0.7-2.6,1-4.5c0.2-1.8,3.5-5.3,2.9-7c-0.6-1.8-2.3-1.7-5.1-2.4c-2.7-0.7-4.9,2.9-5.6,4.4c-0.7,1.5-0.1,3.1-2.6,2.6
	c-2.5-0.5-0.6-6.1,0.4-7.6c1-1.6,5.9-3.3,7.4-2.7c1.5,0.6,1.8-3.8,1.3-5.1c-0.5-1.2,0-1.5,1.2-3.1c0.1-0.1,0.2-0.2,0.3-0.3
	c-1.6-0.2-3,0.6-3.9,1.4c-1.1,0.9,4.8,5.7-2.9,5.7c-7.7,0-7.5,8.4-6.8,11.9c0.7,3.5,5.7,2.4,7.3-1.5c2.2-4.8,7.3-4.6,5.9-1.5
	c-4.6,4.6-4,11.4-2.4,13c1.5,1.5,2,0.2-2,22c-4,21.8-1.8,47.5,5.3,61.4c7,13.9,26.8,27.1,30.6,29.5c3.7,2.4,7.5,1.8,16.7,15.6
	c9.2,13.9,15.4,35.6,14.5,39.6c-0.9,4-4,6.8-1.3,14.1c2.6,7.3,1.8,8.4-3.3,10.1c-5.1,1.8-9.5,9-14.3,14.1
	c-4.8,5.1-15.4,7.5-16.7,12.1c-1.3,4.6,5.5,4.2,1.3,8.1c-8.8,5.1-17.4,25.9-15.2,31.2c2.2,5.3,3.5,11.4,0.7,30.4
	c-2.9,18.9-6.4,55-6.4,64.4c0,9.5,6.2,7.7,4,14.5c-2.2,6.8-6.4,7.9-0.7,23.8c5.7,15.8,13.4,16.1,28.6,18.9
	c15.2,2.9,29.9-0.2,38.5-1.5c8.6-1.3,8.8-16.5,9.5-21.6c0.7-5.1,4.2-5.7,6.2-11c2-5.3-0.9-7.3-2.2-9.9c-1.3-2.6,1.1-9.2,3.7-18
	c2.6-8.8,21.5-64,22.9-64.4c1.3-0.4,4,0.4,2.4,2.4c-1.5,2-3.3,2-1.5,4.8c5.1,5.3,4.4,17.4,3.5,26.4c-0.7,7.1,4.4,24.4,2.2,36.1
	c-2.2,11.7,0.9,12.8-0.2,21.8c-1.1,9-1.1,26,0,32.1c1.1,6.1,8.1,6.2,19.4,6.8c11.2,0.7,33.2-9.2,43.5-15.2
	c10.3-5.9,5.3-44.9,4.4-64.2c-0.9-19.4-4.4-44-6.8-60.9c-2.4-16.9,2.9-24.4,3.3-46.4c0.4-22-4.4-34.8-9-39.8
	c-4.6-5.1-5.9-6.4-3.3-7.5c2.6-1.1,0.9-3.3,1.5-7.5c0.7-4.2,3.3-14.3,26.4-34.3c23.1-20,29.9-36.5,36.9-47.7
	c7-11.2,24.2-53.9,26.4-62.9c2.2-9,5.9-16.1,7.5-16.1c1.5,0,0.9,0.4,2.6,3.1c3.2,1.1,5.5,0.4,5.5-0.9
	C439.1,297.8,436.2,293.9,432.9,292.3z M425.3,294.8c-0.3,2.4-3.7,2.7-4.8,5.5c-1.1,2.7-3.6,11-4.5,14c-0.9,3-14.7,38.4-18.7,45.9
	c-4,7.5-17.6,37.4-34.1,52.3c-16.5,15-32.8,34.5-37.6,46.8c1.8,3.3,0.5,4.6-2,3.5c-2.4-1.1-4-1.1-4.4,1.8c-0.4,2.9,0,3.3-1,5.1
	c-1,1.8-0.7,3.2,0.7,3c1.3-0.2,2.7-3.6,4.8-2.1c2.1,1.5,8.3,3.7,12.7,23.1c4.4,19.3-2.2,44.6-2.4,52.3c-0.2,7.7,2.2,47.3,6.8,66.2
	c4.6,18.9,3.1,47.9,2,53.7c-1.1,5.7-0.4,10.6-9.5,14.1c-9,3.5-35,20.2-40.7,8.8c-5.7-11.4,2.4-10.6-2.2-46.8
	c-2.2-16.3,8.1-28.2,2.6-56.5c-5.5-28.4-10.8-28.8-14.5-27c-3.7,1.8-5.9,3.8-5.7,0.8c0.2-2.1,2.5-3.1,0.6-5c-1.9-2-7.3,5.9-7.9,7.7
	c-0.6,1.8-9.2,25.1-13.3,37.6c-4.1,12.5-1.6,9.7-3.4,13.9c-3.1,7.5-7.2,2.8-10.8,14.4c-3.1,8.2-5.6,14.2-5.6,18.9
	c0,4.7,1.2,8.7-1.3,10c-2.5,1.3-3.9,6.4-4.9,12.6c-1.1,6.4,4.7,6,4.8,8.9c0.2,4,0.3,12.2-7.3,12.5c-7.6,0.3-32.1-1.5-38.3-6
	c-2.2-2.6,3.1-2.7,0-6.3c-2.5-2.9-2.2-0.6-4.4-1.6c-2.2-1-6.9-31.5-5.1-56.9c1.8-25.4,7.6-58.2,7.5-66.9
	c-0.1-8.7,6.3-24.6,11.6-30.6c5.3-6,17.4-24.2,21.4-28.6c4-4.4,4.8-4.8,6.6-0.6c1.8,4.2,8.8,1,4.8-9.7c-2.6-6.2,3.8-21.6-0.1-31.2
	c-2.6-5.1-8.5-25.4-15.4-36.9c-6.9-11.6-4.4-12.9-8.1-15.4c-3.7-2.5-32.8-20.5-39.3-41.1c-6.5-20.5,0.3-58.8,1.8-64.7
	c1.5-5.9,1.6-10.4,4.8-11.7c3.2-1.3,6,1.5,11.1-2.6c5.1-4.1,1.6-7,4.1-8.2c2.5-1.2,2.6,1,4.3,0c1.6-1,7.5-4.7,7.6-7.5
	c0.1-2.8,1.8,2.2,4.4,1c2.6-1.2,3.2-5.1,5.1-5.6c1.9-0.4,1.8,3.8,5.3,2.5c3.5-1.3,6.3-4.5,5.7-6.5c-0.6-1.9,2.8,1.5,4.1,1
	c1.3-0.4,5.1-4.8,5.9-3.5c0.7,1.3,2.8,7.2,4.8,6c2.1-1.2,4.5-3.8,3.1-7c-1.5-3.2,0.9-4,2.1-2.6c1.2,1.3,5.7,11.7,9.8,9.8
	c4.1-1.9,5.7-5.7,4.7-9.1c-1-3.4,6.6-2.5,5.3,0.7c-1.3,3.2,2.1,5.7,5.4,5.1c3.4-0.6,9.1-2.8,9.2-0.1c0.1,2.6-0.4,7.9-2.9,9.2
	c-2.5,1.3-45,5.6-48.4,3.4c-1.4-0.9,0,7.8,1.2,9.5c1.2,1.8,7.3,1.2,14.1,0.9c6.7-0.3,18.8-1.9,22.6-0.9c3.8,1,4.7,2.7,5.1,6.2
	c0.5,4,3,6.2,6.2,6.1c3.1,0,5.7-1.6,5.4-6.3c0,0,1.6,10.6,10.6,13.9c5.4,2,9.6,1.2,12.5,3c2.9,1.8-2.1,13.8-6.6,21
	c-4.6,7.4-11.1,17.5-13.4,16.4c-2.3-1.1,0.2-3.5-2.2-4c-2.4-0.4-8,2.2-12.8,3.4c-4.8,1.2-5.2-0.7-6.4-1.9c-1.2-1.2-2.6-0.6-2.9-1.5
	c-0.4-0.9-1.2-11.5-3.7-13.3c-2.6-1.8,0-4-5.2-4.5c-5.2-0.5-11.7-7.3-14.1-9.8c-2.4-2.4-6.2-2-7.6,1.5c-1.3,3.4-2.2,7.3,1.8,9
	c4,1.7,8.2,7.3,7.7,10.9c-0.4,2.7,0.5,8.3,5.9,11.4c2.7,1.6,6.9,5.1,9.2,7.4c2.4,2.4,5.3,5.6,11.3,5.4c10-0.2,14.7,3.3,15.9,7.9
	c1.2,4.5-4.8,12.2-7.3,14.4c-1.5-1.8-8.8-7.3-17.3-3.7c-8.5,3.5-8.9,13.6-7.3,18.8c1.7,5.1,6.8,21.4,20.7,31.6
	c9.1,6.7,16.9,12.7,25,10.6c8.1-2.1,13.2-3.7,21.8-16.3c8.6-12.6,22.6-43.5,24.9-49c2.3-5.4,11.1-34.6,13.9-52.8
	c2.8-18.2,1-44.6,3-47.1c2.9-2.1,10.8,1.8,11.3,3.6c0.7,2.5-2.4,37.5-2.9,44.1c-0.4,6.6-13.7,44.8-16.5,54.2
	c-2.8,9.4-20.1,55.3-34.3,59.5c-7.1,2.1-12.4,6.3-16.3,13.2c-3.2,5.7,5.6,9.1,10.6,7.8c5-1.3,13.3-6.9,22.9-21.1
	c9.5-14.2,27.3-55.1,30.6-65.7c3.4-10.6,16.2-20.4,18.8-23.2c2.6-2.9,12-15.5,18.1-20.9c6.2-5.4,17.4-20.5,19.1-24.4
	c1.8-4,2.5-4.6,3.8-4.1C421.1,290.4,425.7,292.3,425.3,294.8z"/>
<path fill="#FFFFFF" d="M196.8,282c-2.1,3.9-5.5,9.4-3.3,12.9c2.2,3.5,4.4,5.6,6,7c1.6,1.4,3.5,2.8,1.4,6.1
	c-2.1,3.3-5.8,1.4-9.5-1.5c-3.7-2.9-9.8-9.3-8.2-16.2c1.6-6.9,6.7-13.1,8.4-15c1.7-1.9,7.3-9.3,13.6-8.2c6.3,1.1,8.7,4,9.9,5.1
	c1.2,1.1,3.1,5.1,1,7.6c-2.1,2.5-5.9-0.9-7.4-2.3c-1.5-1.4-4-3.4-6.5-2.2C199.7,276.6,198.4,279,196.8,282"/>
<path fill="#FFFFFF" d="M365.8,256.5c0,0,3.1-2.4,5.8-3.1c2.6-0.7,2-4-1.5-3.5c-3.5,0.4-4.4-1.5-3.3-3.7c1.1-2.2,3.5-8.6-0.4-8.8
	c-4-0.2-3.1,6.6-5.9,5.7c-2.9-0.9,0.1-4.5,1-4.6c0.9-0.1,2.3-3.2,0.5-5.4c-1.8-2.2-3.6-0.9-5.3,2.1c-1.6,3-1.5,5.3-1.5,5.9
	c0,0.7-2.5-1.9-2.3-5.6c0.2-3.7,0.1-11.3-3.8-10.9c-4,0.4-2.9,3.2-1.8,4.8c1.1,1.7,3.3,9.3,2.8,10.4c-0.5,1.1-6.9-2.6-4.8-15.5
	c2-9.8,0.7-8.1-1.9-8.6c-2.5-0.4-3.5,7.6-3.2,11.7c0.3,4.1-1.5-1.9-3.1-2.1c-1.1-0.1-1.5-0.3-2.1,1.4c-0.5,1.8,7.9,8.6,6.7,9.9
	c-1.2,1.3-4.5-0.6-6,1.9c-1.5,2.5,12.9,10.5,13.3,17.9"/>
<path fill="#ED1E79" d="M16.7,178.5c-0.8-4.6-2.8-10.2-1.4-14.6c1.6-5.3,7.9-8.3,13.2-7.3c8,1.6,15.2,8,17.2,15.4
	c2.4,8.9,5,16.5,0.6,24.8c-2.1,3.9-7.6,12.5-12.7,8.2c-3.8-3.2-1.4-10.3-3.6-14.3c-2.3-4-8.3-4.7-11.3-7.6c-3-2.8-3-6.2-3.7-10.3"/>
<path fill="#FBB03B" d="M49.1,280.4c7.9-2.8,16.3,1,16.3,9.4c0,6.3-4.6,11.9-3.3,18.3c1,4.6,9.6,14.3,7,19.1c-5.1,9.4-15.7,2.2-20-2
	c-5.8-5.8-9.6-12.1-14.6-18.7c-5.7-7.6-7.3-8.1-0.5-15C37.9,287.4,43.7,282.3,49.1,280.4z"/>
<path fill="#FBB03B" d="M336.9,164.6c7.7-3.2,16.3-7.4,13.6,6.8c-1.2,6.6-7.4,16.4-14.8,15.2c-7-1.1-16.7-13.1-15.1-20.1
	c0,0,0,0,0,0C326.2,165.9,331.4,166.9,336.9,164.6z"/>
<path fill="#8CC63F" d="M78.1,63.9c2.4-1.4,5.8-1.6,8.5-1.8c7.3,11.3,14.8,14.7,14.2,30.8c-0.4,9.7-5.8,24.5,2.6,32.3
	c-3.4,3-9,4.5-13.8,6c-7-9.6,2-23.5,2.1-34.1c0.1-13-7.5-21.3-14.8-30.5c-0.3-1.1,0.2-1.6,1.6-1.7"/>
<path fill="#FBB03B" d="M319.8,21.6c10.3-4.5,20.5-7.1,25.5-6.4c3.1,13.5-5.7,13-14.8,17.7c-10.4,5.4-11.3,11.5-19.6,19.4
	c0,0,0,0,0,0c-5.2,4.9-14.5,10.4-18.7,5C282.1,44.3,301.2,29.8,319.8,21.6z"/>
<path fill="#ED1E79" d="M410.2,111.4c5.5-4.2,11.3-11.6,18.4-5c15.6,14.4-12.3,10.7-15.8,12.9c-9.9,6.1,1.4,17.4-2.6,25.1
	c-4.9,9.5-17.3,0-24.9-1.7c-0.3-9.2,13.2-5.2,19.4-10.3c0.6-11.2-2.7-22.7,12.1-23.6"/>
<path fill="#8CC63F" d="M360.6,104c-6.2,7.6-20.6,15.3-26.4,11.4c-6.9-4.6-8.5-22.8-1.6-27.8c6.8-5,30.8,1.2,31,10
	C363.5,99.5,362.4,101.7,360.6,104z"/>
</svg>
